<mxfile host="drawio-plugin" modified="2022-10-25T21:10:50.093Z" agent="5.0 (Macintosh; Intel Mac OS X 10_15_7) AppleWebKit/537.36 (KHTML, like Gecko) Chrome/98.0.4758.102 Safari/537.36" etag="YXXaAsUy7ZSQkPbdNqmM" version="15.5.4" type="embed" pages="2"><diagram id="rJ6xLPxrEz14ZqdGSCo2" name="Page-1"><mxGraphModel dx="864" dy="430" grid="1" gridSize="5" guides="1" tooltips="1" connect="1" arrows="1" fold="1" page="1" pageScale="1" pageWidth="850" pageHeight="1100" background="none" math="0" shadow="0"><root><mxCell id="0"/><mxCell id="1" parent="0"/><mxCell id="xm8IV2h12hr9bCTamLuV-1" value="DrawPile" style="swimlane;fontStyle=1;align=center;verticalAlign=top;childLayout=stackLayout;horizontal=1;startSize=26;horizontalStack=0;resizeParent=1;resizeParentMax=0;resizeLast=0;collapsible=1;marginBottom=0;" parent="1" vertex="1"><mxGeometry x="335" y="255" width="175" height="130" as="geometry"/></mxCell><mxCell id="xm8IV2h12hr9bCTamLuV-2" value="- letterPile: List&lt;Letter&gt;" style="text;strokeColor=none;fillColor=none;align=left;verticalAlign=top;spacingLeft=4;spacingRight=4;overflow=hidden;rotatable=0;points=[[0,0.5],[1,0.5]];portConstraint=eastwest;" parent="xm8IV2h12hr9bCTamLuV-1" vertex="1"><mxGeometry y="26" width="175" height="26" as="geometry"/></mxCell><mxCell id="xm8IV2h12hr9bCTamLuV-3" value="" style="line;strokeWidth=1;fillColor=none;align=left;verticalAlign=middle;spacingTop=-1;spacingLeft=3;spacingRight=3;rotatable=0;labelPosition=right;points=[];portConstraint=eastwest;strokeColor=inherit;" parent="xm8IV2h12hr9bCTamLuV-1" vertex="1"><mxGeometry y="52" width="175" height="8" as="geometry"/></mxCell><mxCell id="xm8IV2h12hr9bCTamLuV-4" value="+ DrawPile()&#10;- resetPile(): void&#10;+ addToPile(List&lt;Letter&gt;): void&#10;+ draw(): Letter" style="text;strokeColor=none;fillColor=none;align=left;verticalAlign=top;spacingLeft=4;spacingRight=4;overflow=hidden;rotatable=0;points=[[0,0.5],[1,0.5]];portConstraint=eastwest;" parent="xm8IV2h12hr9bCTamLuV-1" vertex="1"><mxGeometry y="60" width="175" height="70" as="geometry"/></mxCell><mxCell id="xm8IV2h12hr9bCTamLuV-5" style="edgeStyle=orthogonalEdgeStyle;rounded=0;orthogonalLoop=1;jettySize=auto;html=1;exitX=1;exitY=0.5;exitDx=0;exitDy=0;" parent="xm8IV2h12hr9bCTamLuV-1" source="xm8IV2h12hr9bCTamLuV-2" target="xm8IV2h12hr9bCTamLuV-2" edge="1"><mxGeometry relative="1" as="geometry"/></mxCell><mxCell id="xm8IV2h12hr9bCTamLuV-6" value="Hand" style="swimlane;fontStyle=1;align=center;verticalAlign=top;childLayout=stackLayout;horizontal=1;startSize=26;horizontalStack=0;resizeParent=1;resizeParentMax=0;resizeLast=0;collapsible=1;marginBottom=0;" parent="1" vertex="1"><mxGeometry x="5" y="255" width="230" height="177" as="geometry"/></mxCell><mxCell id="xm8IV2h12hr9bCTamLuV-7" value="- pile: DrawPile&#10;- letters: List&lt;Letter&gt;" style="text;strokeColor=none;fillColor=none;align=left;verticalAlign=top;spacingLeft=4;spacingRight=4;overflow=hidden;rotatable=0;points=[[0,0.5],[1,0.5]];portConstraint=eastwest;" parent="xm8IV2h12hr9bCTamLuV-6" vertex="1"><mxGeometry y="26" width="230" height="29" as="geometry"/></mxCell><mxCell id="4" value="- HAND_SIZE: int = 7 {readOnly}" style="text;strokeColor=none;fillColor=none;align=left;verticalAlign=top;spacingLeft=4;spacingRight=4;overflow=hidden;rotatable=0;points=[[0,0.5],[1,0.5]];portConstraint=eastwest;fontStyle=4" parent="xm8IV2h12hr9bCTamLuV-6" vertex="1"><mxGeometry y="55" width="230" height="20" as="geometry"/></mxCell><mxCell id="xm8IV2h12hr9bCTamLuV-8" value="" style="line;strokeWidth=1;fillColor=none;align=left;verticalAlign=middle;spacingTop=-1;spacingLeft=3;spacingRight=3;rotatable=0;labelPosition=right;points=[];portConstraint=eastwest;strokeColor=inherit;" parent="xm8IV2h12hr9bCTamLuV-6" vertex="1"><mxGeometry y="75" width="230" height="8" as="geometry"/></mxCell><mxCell id="xm8IV2h12hr9bCTamLuV-9" value="+ Hand(DrawPile)&#10;- draw(): void&#10;- fillHand(): void&#10;- containsLetters(List&lt;Letter&gt;): boolean&#10;+ useLetters(List&lt;Letter&gt;): boolean&#10;+ toString(): String" style="text;strokeColor=none;fillColor=none;align=left;verticalAlign=top;spacingLeft=4;spacingRight=4;overflow=hidden;rotatable=0;points=[[0,0.5],[1,0.5]];portConstraint=eastwest;" parent="xm8IV2h12hr9bCTamLuV-6" vertex="1"><mxGeometry y="83" width="230" height="94" as="geometry"/></mxCell><mxCell id="xm8IV2h12hr9bCTamLuV-13" value="" style="endArrow=diamondThin;endFill=0;endSize=24;html=1;rounded=0;snapToPoint=1;" parent="1" source="xm8IV2h12hr9bCTamLuV-2" target="xm8IV2h12hr9bCTamLuV-7" edge="1"><mxGeometry width="160" relative="1" as="geometry"><mxPoint x="340" y="320" as="sourcePoint"/><mxPoint x="500" y="320" as="targetPoint"/></mxGeometry></mxCell><mxCell id="xm8IV2h12hr9bCTamLuV-14" value="&lt;&lt;Enumeration&gt;&gt;&#10;Letter" style="swimlane;fontStyle=1;align=center;verticalAlign=top;childLayout=stackLayout;horizontal=1;startSize=40;horizontalStack=0;resizeParent=1;resizeParentMax=0;resizeLast=0;collapsible=1;marginBottom=0;strokeColor=default;whiteSpace=wrap;spacingBottom=2;" parent="1" vertex="1"><mxGeometry x="175" width="210" height="166" as="geometry"><mxRectangle x="370" y="220" width="140" height="40" as="alternateBounds"/></mxGeometry></mxCell><mxCell id="xm8IV2h12hr9bCTamLuV-15" value="- character: char&#10;- score: int&#10;- frequency: int" style="text;strokeColor=none;fillColor=none;align=left;verticalAlign=top;spacingLeft=4;spacingRight=4;overflow=hidden;rotatable=0;points=[[0,0.5],[1,0.5]];portConstraint=eastwest;" parent="xm8IV2h12hr9bCTamLuV-14" vertex="1"><mxGeometry y="40" width="210" height="50" as="geometry"/></mxCell><mxCell id="xm8IV2h12hr9bCTamLuV-16" value="" style="line;strokeWidth=1;fillColor=none;align=left;verticalAlign=middle;spacingTop=-1;spacingLeft=3;spacingRight=3;rotatable=0;labelPosition=right;points=[];portConstraint=eastwest;strokeColor=inherit;" parent="xm8IV2h12hr9bCTamLuV-14" vertex="1"><mxGeometry y="90" width="210" height="8" as="geometry"/></mxCell><mxCell id="xm8IV2h12hr9bCTamLuV-17" value="+ toString(): String&#10;+ getScore(): int&#10;+ getFrequency(): int&#10;" style="text;strokeColor=none;fillColor=none;align=left;verticalAlign=top;spacingLeft=4;spacingRight=4;overflow=hidden;rotatable=0;points=[[0,0.5],[1,0.5]];portConstraint=eastwest;" parent="xm8IV2h12hr9bCTamLuV-14" vertex="1"><mxGeometry y="98" width="210" height="42" as="geometry"/></mxCell><mxCell id="xm8IV2h12hr9bCTamLuV-29" value="+ wordToLetters(String): List&lt;Letter&gt;" style="text;strokeColor=none;fillColor=none;align=left;verticalAlign=top;spacingLeft=4;spacingRight=4;overflow=hidden;rotatable=0;points=[[0,0.5],[1,0.5]];portConstraint=eastwest;fontStyle=4" parent="xm8IV2h12hr9bCTamLuV-14" vertex="1"><mxGeometry y="140" width="210" height="26" as="geometry"/></mxCell><mxCell id="xm8IV2h12hr9bCTamLuV-24" value="" style="endArrow=diamondThin;endFill=0;endSize=24;html=1;rounded=0;" parent="1" target="xm8IV2h12hr9bCTamLuV-6" edge="1"><mxGeometry width="160" relative="1" as="geometry"><mxPoint x="120" y="210" as="sourcePoint"/><mxPoint x="130" y="300" as="targetPoint"/></mxGeometry></mxCell><mxCell id="xm8IV2h12hr9bCTamLuV-26" value="" style="endArrow=none;html=1;rounded=0;" parent="1" edge="1"><mxGeometry width="50" height="50" relative="1" as="geometry"><mxPoint x="120" y="210" as="sourcePoint"/><mxPoint x="420" y="210" as="targetPoint"/></mxGeometry></mxCell><mxCell id="xm8IV2h12hr9bCTamLuV-27" value="" style="endArrow=diamondThin;endFill=0;endSize=24;html=1;rounded=0;" parent="1" target="xm8IV2h12hr9bCTamLuV-1" edge="1"><mxGeometry width="160" relative="1" as="geometry"><mxPoint x="420" y="210" as="sourcePoint"/><mxPoint x="572.5" y="360" as="targetPoint"/></mxGeometry></mxCell><mxCell id="xm8IV2h12hr9bCTamLuV-28" value="" style="endArrow=none;html=1;rounded=0;" parent="1" target="xm8IV2h12hr9bCTamLuV-29" edge="1"><mxGeometry width="50" height="50" relative="1" as="geometry"><mxPoint x="280" y="210" as="sourcePoint"/><mxPoint x="405" y="220" as="targetPoint"/></mxGeometry></mxCell><mxCell id="14" value="Player" style="swimlane;fontStyle=1;align=center;verticalAlign=top;childLayout=stackLayout;horizontal=1;startSize=26;horizontalStack=0;resizeParent=1;resizeParentMax=0;resizeLast=0;collapsible=1;marginBottom=0;" parent="1" vertex="1"><mxGeometry x="7.5" y="500" width="225" height="175" as="geometry"/></mxCell><mxCell id="15" value="- hand: Hand&#10;- name: String&#10;- score: int&#10;- model: ScrabbleModel" style="text;strokeColor=none;fillColor=none;align=left;verticalAlign=top;spacingLeft=4;spacingRight=4;overflow=hidden;rotatable=0;points=[[0,0.5],[1,0.5]];portConstraint=eastwest;" parent="14" vertex="1"><mxGeometry y="26" width="225" height="64" as="geometry"/></mxCell><mxCell id="16" value="" style="line;strokeWidth=1;fillColor=none;align=left;verticalAlign=middle;spacingTop=-1;spacingLeft=3;spacingRight=3;rotatable=0;labelPosition=right;points=[];portConstraint=eastwest;" parent="14" vertex="1"><mxGeometry y="90" width="225" height="8" as="geometry"/></mxCell><mxCell id="17" value="+ Player(String, DrawPile)&#10;+ placeLetters(List&lt;Letter&gt;): boolean&#10;+ discardLetters(List&lt;Letter&gt;): void&#10;+ addPoints(List&lt;Letter&gt;): void&#10;+ toString(): String" style="text;strokeColor=none;fillColor=none;align=left;verticalAlign=top;spacingLeft=4;spacingRight=4;overflow=hidden;rotatable=0;points=[[0,0.5],[1,0.5]];portConstraint=eastwest;" parent="14" vertex="1"><mxGeometry y="98" width="225" height="77" as="geometry"/></mxCell><mxCell id="20" value="" style="endArrow=diamondThin;endFill=0;endSize=24;html=1;rounded=0;" parent="1" source="xm8IV2h12hr9bCTamLuV-9" target="14" edge="1"><mxGeometry width="160" relative="1" as="geometry"><mxPoint x="195" y="475" as="sourcePoint"/><mxPoint x="355" y="475" as="targetPoint"/></mxGeometry></mxCell><mxCell id="23" value="ScrabbleModel" style="swimlane;fontStyle=1;align=center;verticalAlign=top;childLayout=stackLayout;horizontal=1;startSize=26;horizontalStack=0;resizeParent=1;resizeParentMax=0;resizeLast=0;collapsible=1;marginBottom=0;" parent="1" vertex="1"><mxGeometry x="380" y="507" width="160" height="86" as="geometry"/></mxCell><mxCell id="24" value="- drawPile: DrawPile" style="text;strokeColor=none;fillColor=none;align=left;verticalAlign=top;spacingLeft=4;spacingRight=4;overflow=hidden;rotatable=0;points=[[0,0.5],[1,0.5]];portConstraint=eastwest;" parent="23" vertex="1"><mxGeometry y="26" width="160" height="26" as="geometry"/></mxCell><mxCell id="25" value="" style="line;strokeWidth=1;fillColor=none;align=left;verticalAlign=middle;spacingTop=-1;spacingLeft=3;spacingRight=3;rotatable=0;labelPosition=right;points=[];portConstraint=eastwest;" parent="23" vertex="1"><mxGeometry y="52" width="160" height="8" as="geometry"/></mxCell><mxCell id="26" value="+ getDrawPile(): DrawPile" style="text;strokeColor=none;fillColor=none;align=left;verticalAlign=top;spacingLeft=4;spacingRight=4;overflow=hidden;rotatable=0;points=[[0,0.5],[1,0.5]];portConstraint=eastwest;" parent="23" vertex="1"><mxGeometry y="60" width="160" height="26" as="geometry"/></mxCell><mxCell id="27" value="" style="endArrow=diamondThin;endFill=0;endSize=24;html=1;rounded=0;" parent="1" source="24" target="15" edge="1"><mxGeometry width="160" relative="1" as="geometry"><mxPoint x="175" y="465" as="sourcePoint"/><mxPoint x="340" y="470" as="targetPoint"/></mxGeometry></mxCell><mxCell id="28" value="" style="endArrow=diamondThin;endFill=0;endSize=24;html=1;rounded=0;" parent="1" source="xm8IV2h12hr9bCTamLuV-4" target="23" edge="1"><mxGeometry width="160" relative="1" as="geometry"><mxPoint x="215" y="470" as="sourcePoint"/><mxPoint x="375" y="470" as="targetPoint"/></mxGeometry></mxCell><mxCell id="30" value="BoardTile" style="swimlane;fontStyle=1;align=center;verticalAlign=top;childLayout=stackLayout;horizontal=1;startSize=26;horizontalStack=0;resizeParent=1;resizeParentMax=0;resizeLast=0;collapsible=1;marginBottom=0;" parent="1" vertex="1"><mxGeometry x="610" y="55" width="160" height="295" as="geometry"/></mxCell><mxCell id="31" value="- letter: Letter&#10;- tileType: Type&#10;- x: int&#10;- y: int&#10;- taken: boolean" style="text;strokeColor=none;fillColor=none;align=left;verticalAlign=top;spacingLeft=4;spacingRight=4;overflow=hidden;rotatable=0;points=[[0,0.5],[1,0.5]];portConstraint=eastwest;" parent="30" vertex="1"><mxGeometry y="26" width="160" height="84" as="geometry"/></mxCell><mxCell id="32" value="" style="line;strokeWidth=1;fillColor=none;align=left;verticalAlign=middle;spacingTop=-1;spacingLeft=3;spacingRight=3;rotatable=0;labelPosition=right;points=[];portConstraint=eastwest;" parent="30" vertex="1"><mxGeometry y="110" width="160" height="8" as="geometry"/></mxCell><mxCell id="33" value="+ BoardTile(Type, int, int)&#10;+ setX(int): void&#10;+ getX(): int&#10;+ setY(int): void&#10;+getY(): int&#10;+ isTaken(): boolean&#10;+ setLetter(Letter): void&#10;+ getLetter(): Letter&#10;+ getType(): Type&#10;+ setType(Type): void&#10;+ toString(): String" style="text;strokeColor=none;fillColor=none;align=left;verticalAlign=top;spacingLeft=4;spacingRight=4;overflow=hidden;rotatable=0;points=[[0,0.5],[1,0.5]];portConstraint=eastwest;" parent="30" vertex="1"><mxGeometry y="118" width="160" height="177" as="geometry"/></mxCell><mxCell id="35" value="&lt;&lt;Enumeration&gt;&gt;&#10;Type" style="swimlane;fontStyle=0;childLayout=stackLayout;horizontal=1;startSize=26;fillColor=none;horizontalStack=0;resizeParent=1;resizeParentMax=0;resizeLast=0;collapsible=1;marginBottom=0;" parent="1" vertex="1"><mxGeometry x="855" y="16" width="140" height="150" as="geometry"/></mxCell><mxCell id="36" value="START" style="text;strokeColor=none;fillColor=none;align=left;verticalAlign=top;spacingLeft=4;spacingRight=4;overflow=hidden;rotatable=0;points=[[0,0.5],[1,0.5]];portConstraint=eastwest;" parent="35" vertex="1"><mxGeometry y="26" width="140" height="26" as="geometry"/></mxCell><mxCell id="37" value="BLANK" style="text;strokeColor=none;fillColor=none;align=left;verticalAlign=top;spacingLeft=4;spacingRight=4;overflow=hidden;rotatable=0;points=[[0,0.5],[1,0.5]];portConstraint=eastwest;" parent="35" vertex="1"><mxGeometry y="52" width="140" height="26" as="geometry"/></mxCell><mxCell id="38" value="X2WORD&#10;X3WORD&#10;x2LETTER&#10;X3LETTER" style="text;strokeColor=none;fillColor=none;align=left;verticalAlign=top;spacingLeft=4;spacingRight=4;overflow=hidden;rotatable=0;points=[[0,0.5],[1,0.5]];portConstraint=eastwest;" parent="35" vertex="1"><mxGeometry y="78" width="140" height="72" as="geometry"/></mxCell><mxCell id="39" value="Board" style="swimlane;fontStyle=1;align=center;verticalAlign=top;childLayout=stackLayout;horizontal=1;startSize=26;horizontalStack=0;resizeParent=1;resizeParentMax=0;resizeLast=0;collapsible=1;marginBottom=0;" parent="1" vertex="1"><mxGeometry x="640" y="425" width="370" height="295" as="geometry"/></mxCell><mxCell id="40" value="- board: BoardTile[ ] [ ]&#10;- column: String [ ]&#10;- dictionary: DictionaryHandler&#10;- playedWords: ArrayList&lt;String&gt;&#10;" style="text;strokeColor=none;fillColor=none;align=left;verticalAlign=top;spacingLeft=4;spacingRight=4;overflow=hidden;rotatable=0;points=[[0,0.5],[1,0.5]];portConstraint=eastwest;" parent="39" vertex="1"><mxGeometry y="26" width="370" height="79" as="geometry"/></mxCell><mxCell id="41" value="" style="line;strokeWidth=1;fillColor=none;align=left;verticalAlign=middle;spacingTop=-1;spacingLeft=3;spacingRight=3;rotatable=0;labelPosition=right;points=[];portConstraint=eastwest;" parent="39" vertex="1"><mxGeometry y="105" width="370" height="8" as="geometry"/></mxCell><mxCell id="42" value="+ Board(int, int)&#10;- connectedToStart(int, int): boolean&#10;+ wordPlacementOk(String, int, int, boolean): boolean&#10;+ boardScore(String, int, int, boolean): int&#10;+ placeWord(String, int, int, boolean): boolean&#10;+ getAdditionalScores(String, int, int, boolean): int&#10;+ createWord(BoardTile [ ] [ ], BoardTile, BoardTile, boolean):String&#10;+ getWordScore(String, int, int, boolean): int&#10;+  toString(): String&#10;" style="text;strokeColor=none;fillColor=none;align=left;verticalAlign=top;spacingLeft=4;spacingRight=4;overflow=hidden;rotatable=0;points=[[0,0.5],[1,0.5]];portConstraint=eastwest;" parent="39" vertex="1"><mxGeometry y="113" width="370" height="182" as="geometry"/></mxCell><mxCell id="43" value="" style="endArrow=open;startArrow=circlePlus;endFill=0;startFill=0;endSize=8;html=1;rounded=0;" edge="1" parent="1" source="31" target="38"><mxGeometry width="160" relative="1" as="geometry"><mxPoint x="650" y="185" as="sourcePoint"/><mxPoint x="810" y="185" as="targetPoint"/></mxGeometry></mxCell><mxCell id="44" value="" style="endArrow=diamondThin;endFill=0;endSize=24;html=1;rounded=0;" edge="1" parent="1" source="33" target="39"><mxGeometry width="160" relative="1" as="geometry"><mxPoint x="650" y="185" as="sourcePoint"/><mxPoint x="810" y="185" as="targetPoint"/></mxGeometry></mxCell><mxCell id="46" value="" style="endArrow=diamondThin;endFill=0;endSize=24;html=1;rounded=0;" edge="1" parent="1" source="xm8IV2h12hr9bCTamLuV-15"><mxGeometry width="160" relative="1" as="geometry"><mxPoint x="450" y="125" as="sourcePoint"/><mxPoint x="610" y="125" as="targetPoint"/></mxGeometry></mxCell></root></mxGraphModel></diagram><diagram id="ifj_cxSnMoa0TH0p4cXK" name="Page-2"><mxGraphModel dx="514" dy="430" grid="1" gridSize="10" guides="1" tooltips="1" connect="1" arrows="1" fold="1" page="1" pageScale="1" pageWidth="850" pageHeight="1100" math="0" shadow="0"><root><mxCell id="TDnlzvFs_yz1vtrBMuoe-0"/><mxCell id="TDnlzvFs_yz1vtrBMuoe-1" parent="TDnlzvFs_yz1vtrBMuoe-0"/><mxCell id="TDnlzvFs_yz1vtrBMuoe-3" value="s:ScrabbleModel" style="shape=umlLifeline;perimeter=lifelinePerimeter;whiteSpace=wrap;html=1;container=1;collapsible=0;recursiveResize=0;outlineConnect=0;" vertex="1" parent="TDnlzvFs_yz1vtrBMuoe-1"><mxGeometry x="60" y="50" width="100" height="600" as="geometry"/></mxCell><mxCell id="TDnlzvFs_yz1vtrBMuoe-8" value="" style="html=1;points=[];perimeter=orthogonalPerimeter;" vertex="1" parent="TDnlzvFs_yz1vtrBMuoe-3"><mxGeometry x="50" y="90" width="10" height="160" as="geometry"/></mxCell><mxCell id="TDnlzvFs_yz1vtrBMuoe-9" value="nextTurn();" style="edgeStyle=orthogonalEdgeStyle;html=1;align=left;spacingLeft=2;endArrow=block;rounded=0;entryX=1;entryY=0;" edge="1" target="TDnlzvFs_yz1vtrBMuoe-8" parent="TDnlzvFs_yz1vtrBMuoe-3"><mxGeometry relative="1" as="geometry"><mxPoint x="55" y="70" as="sourcePoint"/><Array as="points"><mxPoint x="85" y="70"/></Array></mxGeometry></mxCell><mxCell id="TDnlzvFs_yz1vtrBMuoe-21" value="" style="html=1;points=[];perimeter=orthogonalPerimeter;" vertex="1" parent="TDnlzvFs_yz1vtrBMuoe-3"><mxGeometry x="50" y="250" width="10" height="270" as="geometry"/></mxCell><mxCell id="TDnlzvFs_yz1vtrBMuoe-10" value="p:Player" style="shape=umlLifeline;perimeter=lifelinePerimeter;whiteSpace=wrap;html=1;container=1;collapsible=0;recursiveResize=0;outlineConnect=0;" vertex="1" parent="TDnlzvFs_yz1vtrBMuoe-1"><mxGeometry x="270" y="50" width="100" height="570" as="geometry"/></mxCell><mxCell id="TDnlzvFs_yz1vtrBMuoe-11" value="" style="html=1;points=[];perimeter=orthogonalPerimeter;" vertex="1" parent="TDnlzvFs_yz1vtrBMuoe-10"><mxGeometry x="45" y="110" width="10" height="420" as="geometry"/></mxCell><mxCell id="TDnlzvFs_yz1vtrBMuoe-19" value="" style="endArrow=open;endFill=1;endSize=12;html=1;rounded=0;entryX=0.45;entryY=0.833;entryDx=0;entryDy=0;entryPerimeter=0;" edge="1" parent="TDnlzvFs_yz1vtrBMuoe-10" source="TDnlzvFs_yz1vtrBMuoe-11" target="TDnlzvFs_yz1vtrBMuoe-11"><mxGeometry width="160" relative="1" as="geometry"><mxPoint x="55" y="250" as="sourcePoint"/><mxPoint x="180" y="240" as="targetPoint"/><Array as="points"><mxPoint x="180" y="240"/><mxPoint x="180" y="250"/><mxPoint x="180" y="460"/></Array></mxGeometry></mxCell><mxCell id="TDnlzvFs_yz1vtrBMuoe-12" value="handleDiscard(this)" style="html=1;verticalAlign=bottom;startArrow=oval;startFill=1;endArrow=block;startSize=8;rounded=0;exitX=0.1;exitY=0.054;exitDx=0;exitDy=0;exitPerimeter=0;" edge="1" parent="TDnlzvFs_yz1vtrBMuoe-1" source="TDnlzvFs_yz1vtrBMuoe-11"><mxGeometry width="60" relative="1" as="geometry"><mxPoint x="410" y="230" as="sourcePoint"/><mxPoint x="120" y="180" as="targetPoint"/></mxGeometry></mxCell><mxCell id="TDnlzvFs_yz1vtrBMuoe-13" value="t:TextController" style="shape=umlLifeline;perimeter=lifelinePerimeter;whiteSpace=wrap;html=1;container=1;collapsible=0;recursiveResize=0;outlineConnect=0;" vertex="1" parent="TDnlzvFs_yz1vtrBMuoe-1"><mxGeometry x="440" y="50" width="100" height="570" as="geometry"/></mxCell><mxCell id="TDnlzvFs_yz1vtrBMuoe-14" value="" style="html=1;points=[];perimeter=orthogonalPerimeter;" vertex="1" parent="TDnlzvFs_yz1vtrBMuoe-13"><mxGeometry x="40" y="140" width="10" height="80" as="geometry"/></mxCell><mxCell id="TDnlzvFs_yz1vtrBMuoe-17" value="" style="html=1;points=[];perimeter=orthogonalPerimeter;" vertex="1" parent="TDnlzvFs_yz1vtrBMuoe-13"><mxGeometry x="40" y="170" width="10" height="50" as="geometry"/></mxCell><mxCell id="TDnlzvFs_yz1vtrBMuoe-18" value="isValidWord(String);" style="edgeStyle=orthogonalEdgeStyle;html=1;align=left;spacingLeft=2;endArrow=block;rounded=0;entryX=1;entryY=0;" edge="1" target="TDnlzvFs_yz1vtrBMuoe-17" parent="TDnlzvFs_yz1vtrBMuoe-13"><mxGeometry relative="1" as="geometry"><mxPoint x="45" y="150" as="sourcePoint"/><Array as="points"><mxPoint x="75" y="150"/></Array></mxGeometry></mxCell><mxCell id="TDnlzvFs_yz1vtrBMuoe-20" value="discardLetters(List&amp;lt;Letter&amp;gt;)" style="text;html=1;align=center;verticalAlign=middle;resizable=0;points=[];autosize=1;strokeColor=none;fillColor=none;rotation=0;" vertex="1" parent="TDnlzvFs_yz1vtrBMuoe-13"><mxGeometry x="-110" y="470" width="160" height="20" as="geometry"/></mxCell><mxCell id="TDnlzvFs_yz1vtrBMuoe-15" value="askForWord(String);" style="html=1;verticalAlign=bottom;endArrow=block;entryX=0;entryY=0;rounded=0;" edge="1" target="TDnlzvFs_yz1vtrBMuoe-14" parent="TDnlzvFs_yz1vtrBMuoe-1" source="TDnlzvFs_yz1vtrBMuoe-10"><mxGeometry relative="1" as="geometry"><mxPoint x="410" y="190" as="sourcePoint"/></mxGeometry></mxCell><mxCell id="TDnlzvFs_yz1vtrBMuoe-16" value="List&amp;lt;Letter&amp;gt;" style="html=1;verticalAlign=bottom;endArrow=open;dashed=1;endSize=8;exitX=0;exitY=0.95;rounded=0;" edge="1" source="TDnlzvFs_yz1vtrBMuoe-14" parent="TDnlzvFs_yz1vtrBMuoe-1" target="TDnlzvFs_yz1vtrBMuoe-10"><mxGeometry relative="1" as="geometry"><mxPoint x="410" y="266" as="targetPoint"/></mxGeometry></mxCell><mxCell id="TDnlzvFs_yz1vtrBMuoe-22" value="getDrawPile();" style="html=1;verticalAlign=bottom;endArrow=block;entryX=1;entryY=0;rounded=0;" edge="1" target="TDnlzvFs_yz1vtrBMuoe-21" parent="TDnlzvFs_yz1vtrBMuoe-1" source="TDnlzvFs_yz1vtrBMuoe-10"><mxGeometry relative="1" as="geometry"><mxPoint x="180" y="300" as="sourcePoint"/></mxGeometry></mxCell><mxCell id="TDnlzvFs_yz1vtrBMuoe-23" value="DrawPile" style="html=1;verticalAlign=bottom;endArrow=open;dashed=1;endSize=8;exitX=1;exitY=0.08;rounded=0;exitDx=0;exitDy=0;exitPerimeter=0;" edge="1" source="TDnlzvFs_yz1vtrBMuoe-21" parent="TDnlzvFs_yz1vtrBMuoe-1" target="TDnlzvFs_yz1vtrBMuoe-10"><mxGeometry relative="1" as="geometry"><mxPoint x="180" y="357" as="targetPoint"/></mxGeometry></mxCell><mxCell id="TDnlzvFs_yz1vtrBMuoe-24" value="d:DrawPile" style="shape=umlLifeline;perimeter=lifelinePerimeter;whiteSpace=wrap;html=1;container=1;collapsible=0;recursiveResize=0;outlineConnect=0;" vertex="1" parent="TDnlzvFs_yz1vtrBMuoe-1"><mxGeometry x="630" y="50" width="100" height="570" as="geometry"/></mxCell><mxCell id="TDnlzvFs_yz1vtrBMuoe-25" value="" style="html=1;points=[];perimeter=orthogonalPerimeter;" vertex="1" parent="TDnlzvFs_yz1vtrBMuoe-24"><mxGeometry x="45" y="320" width="10" height="40" as="geometry"/></mxCell><mxCell id="TDnlzvFs_yz1vtrBMuoe-26" value="addToPile(List&amp;lt;Letter&amp;gt;);" style="html=1;verticalAlign=bottom;startArrow=oval;endArrow=block;startSize=8;rounded=0;entryX=0.5;entryY=0.595;entryDx=0;entryDy=0;entryPerimeter=0;" edge="1" target="TDnlzvFs_yz1vtrBMuoe-11" parent="TDnlzvFs_yz1vtrBMuoe-1" source="TDnlzvFs_yz1vtrBMuoe-24"><mxGeometry x="0.1655" relative="1" as="geometry"><mxPoint x="640" y="380" as="sourcePoint"/><mxPoint x="610" y="380" as="targetPoint"/><mxPoint as="offset"/></mxGeometry></mxCell><mxCell id="TDnlzvFs_yz1vtrBMuoe-27" value="h:hand" style="shape=umlLifeline;perimeter=lifelinePerimeter;whiteSpace=wrap;html=1;container=1;collapsible=0;recursiveResize=0;outlineConnect=0;" vertex="1" parent="TDnlzvFs_yz1vtrBMuoe-1"><mxGeometry x="800" y="50" width="100" height="580" as="geometry"/></mxCell><mxCell id="TDnlzvFs_yz1vtrBMuoe-31" value="" style="html=1;points=[];perimeter=orthogonalPerimeter;" vertex="1" parent="TDnlzvFs_yz1vtrBMuoe-27"><mxGeometry x="40" y="380" width="10" height="50" as="geometry"/></mxCell><mxCell id="TDnlzvFs_yz1vtrBMuoe-34" value="" style="html=1;points=[];perimeter=orthogonalPerimeter;" vertex="1" parent="TDnlzvFs_yz1vtrBMuoe-27"><mxGeometry x="40" y="410" width="10" height="40" as="geometry"/></mxCell><mxCell id="TDnlzvFs_yz1vtrBMuoe-35" value="fillHand();" style="edgeStyle=orthogonalEdgeStyle;html=1;align=left;spacingLeft=2;endArrow=block;rounded=0;entryX=1;entryY=0;" edge="1" target="TDnlzvFs_yz1vtrBMuoe-34" parent="TDnlzvFs_yz1vtrBMuoe-27"><mxGeometry relative="1" as="geometry"><mxPoint x="45" y="390" as="sourcePoint"/><Array as="points"><mxPoint x="75" y="390"/></Array></mxGeometry></mxCell><mxCell id="TDnlzvFs_yz1vtrBMuoe-32" value="useLetters(List&amp;lt;Letter&amp;gt;);" style="html=1;verticalAlign=bottom;endArrow=block;entryX=0;entryY=0;rounded=0;" edge="1" target="TDnlzvFs_yz1vtrBMuoe-31" parent="TDnlzvFs_yz1vtrBMuoe-1" source="TDnlzvFs_yz1vtrBMuoe-10"><mxGeometry x="0.5773" relative="1" as="geometry"><mxPoint x="390" y="420" as="sourcePoint"/><mxPoint x="1" as="offset"/></mxGeometry></mxCell><mxCell id="TDnlzvFs_yz1vtrBMuoe-33" value="boolean" style="html=1;verticalAlign=bottom;endArrow=open;dashed=1;endSize=8;exitX=0;exitY=0.95;rounded=0;" edge="1" source="TDnlzvFs_yz1vtrBMuoe-31" parent="TDnlzvFs_yz1vtrBMuoe-1" target="TDnlzvFs_yz1vtrBMuoe-11"><mxGeometry relative="1" as="geometry"><mxPoint x="570" y="449" as="targetPoint"/></mxGeometry></mxCell></root></mxGraphModel></diagram></mxfile>